<?xml version="1.0" encoding="UTF-8"?>
<svg id="Capa_1" data-name="Capa 1" xmlns="http://www.w3.org/2000/svg" viewBox="0 0 1080 588.16">
  <defs>
    <style>
      .cls-1 {
        stroke-width: 0px;
      }
    </style>
  </defs>
  <path class="cls-1" d="M856.69,113.21c-67.84-6.56-136.05-9.06-204.21-8.2-68.17.89-136.3,5.83-203.91,14.82-38.51,5.19-76.88,11.74-114.86,20.11-27.61-15.16-33.32-44.4-39.73-110.44-10.6,109.27-19.2,117.87-128.47,128.47,28.3,2.75,49.81,5.37,66.39,9.63-26.9,8.94-53.4,19.16-79.05,31.37-15.42,7.4-30.6,15.4-45.11,24.56-14.53,9.1-28.5,19.22-41.22,30.87-12.73,11.58-24.16,24.9-32.54,40.19-8.33,15.22-13.21,32.84-11.89,50.41.81,17.63,7.75,34.36,17.21,48.81,9.5,14.56,21.82,26.9,34.99,37.9,26.51,21.98,56.89,38.36,87.93,52.49,15.58,7,31.49,13.21,47.5,19.08,16.1,5.64,32.27,11.07,48.66,15.76,32.73,9.59,65.97,17.24,99.4,23.78,33.44,6.5,67.11,11.72,100.9,15.86-33.73-4.62-67.31-10.32-100.62-17.28-33.29-7.01-66.37-15.11-98.85-25.14-16.29-4.87-32.37-10.36-48.35-16.12-15.9-5.98-31.67-12.28-47.1-19.36-30.71-14.27-60.7-30.79-86.54-52.57-12.83-10.88-24.74-23.04-33.76-37.12-8.99-13.97-15.54-29.82-16.23-46.38-1.2-16.51,3.4-33.05,11.39-47.57,8.04-14.58,19.11-27.46,31.56-38.72,12.43-11.33,26.17-21.23,40.5-30.15,14.31-8.98,29.33-16.84,44.61-24.13,27.99-13.23,57.08-24.12,86.62-33.54,38.47,13.36,44.81,40.95,52.07,115.87,10.6-109.27,19.2-117.87,128.47-128.47-36.89-3.58-62.28-6.95-80.17-14.02,35.39-7.67,71.14-13.8,107.02-18.73,67.35-9.24,135.28-14,203.26-15.62,67.99-1.43,136.08.57,203.86,6.51,67.78,5.73,135.29,15.57,201.7,30.66-66.18-16.04-133.62-26.85-201.43-33.57Z"/>
  <path class="cls-1" d="M600.01,151.75c-68.44,0-111.32,19.06-144.67,53.28-29.89,31.19-48.51,71.04-48.51,126.91,0,33.79,12.13,73.21,29.45,98.76,31.19,46.35,82.3,81.43,163.73,81.43,64.1,0,106.56-22.09,139.47-55.44,34.22-34.22,52.41-81.87,52.41-124.75,0-48.94-12.13-80.57-34.22-110.89-31.19-42.88-80.57-69.3-157.67-69.3ZM634.48,334.7c0,19.87-16.11,35.99-35.99,35.99s-35.99-16.11-35.99-35.99c0-.23.03-.46.04-.69,0-.23-.04-.46-.04-.69,0-19.88,16.11-35.99,35.99-35.99s35.99,16.11,35.99,35.99c0,.23-.03.46-.03.69,0,.23.03.46.03.69Z"/>
</svg>